<svg width="32" height="32" viewBox="0 0 32 32" fill="none" xmlns="http://www.w3.org/2000/svg">
<path d="M28 17.333V17.1997V17.0609C28 15.4284 28 14.6122 27.7553 13.859C27.6743 13.6099 27.5739 13.3675 27.455 13.1341C27.0955 12.4285 26.5183 11.8513 25.364 10.697L22.364 7.69697C19.7125 5.04551 18.3868 3.71978 16.7822 3.46563C16.264 3.38356 15.736 3.38356 15.2178 3.46563C13.6132 3.71978 12.2875 5.04551 9.63604 7.69697L6.63604 10.697C5.48167 11.8513 4.90449 12.4285 4.54497 13.1341C4.42605 13.3675 4.32566 13.6099 4.24472 13.859C4 14.6122 4 15.4284 4 17.0609V23.9997C4 24.9296 4 25.3946 4.10222 25.7761C4.37962 26.8114 5.18827 27.62 6.22354 27.8975C6.60504 27.9997 7.07003 27.9997 8 27.9997C8.92997 27.9997 9.39496 27.9997 9.77646 27.8975C10.8117 27.62 11.6204 26.8114 11.8978 25.7761C12 25.3946 12 24.9296 12 23.9997V22.6663C12 21.7364 12 21.2714 12.1022 20.8899C12.3796 19.8546 13.1883 19.046 14.2235 18.7686C14.605 18.6663 15.07 18.6663 16 18.6663C16.93 18.6663 17.395 18.6663 17.7765 18.7686C18.8117 19.046 19.6204 19.8546 19.8978 20.8899C20 21.2714 20 21.7364 20 22.6663V23.9997C20 24.9296 20 25.3946 20.1022 25.7761C20.3796 26.8114 21.1883 27.62 22.2235 27.8975C22.605 27.9997 23.07 27.9997 24 27.9997C24.93 27.9997 25.395 27.9997 25.7765 27.8975C26.8117 27.62 27.6204 26.8114 27.8978 25.7761C28 25.3946 28 24.9296 28 23.9997V22.6663" stroke="white" stroke-width="3" stroke-linecap="round" stroke-linejoin="round"/>
</svg>
