<svg width="32" height="32" viewBox="0 0 32 32" fill="none" xmlns="http://www.w3.org/2000/svg">
<path d="M28 17.3335V17.2002V17.0614C28 15.4289 28 14.6126 27.7553 13.8595C27.6743 13.6104 27.5739 13.368 27.455 13.1346C27.0955 12.429 26.5183 11.8518 25.364 10.6975L22.364 7.69746C19.7125 5.046 18.3868 3.72027 16.7822 3.46612C16.264 3.38404 15.736 3.38404 15.2178 3.46612C13.6132 3.72027 12.2875 5.046 9.63604 7.69746L6.63604 10.6975C5.48167 11.8518 4.90449 12.429 4.54497 13.1346C4.42605 13.368 4.32566 13.6104 4.24472 13.8595C4 14.6126 4 15.4289 4 17.0614V24.0002C4 24.9301 4 25.3951 4.10222 25.7766C4.37962 26.8119 5.18827 27.6205 6.22354 27.8979C6.60504 28.0002 7.07003 28.0002 8 28.0002C8.92997 28.0002 9.39496 28.0002 9.77646 27.8979C10.8117 27.6205 11.6204 26.8119 11.8978 25.7766C12 25.3951 12 24.9301 12 24.0002V22.6668C12 21.7369 12 21.2719 12.1022 20.8904C12.3796 19.8551 13.1883 19.0465 14.2235 18.7691C14.605 18.6668 15.07 18.6668 16 18.6668C16.93 18.6668 17.395 18.6668 17.7765 18.7691C18.8117 19.0465 19.6204 19.8551 19.8978 20.8904C20 21.2719 20 21.7369 20 22.6668V24.0002C20 24.9301 20 25.3951 20.1022 25.7766C20.3796 26.8119 21.1883 27.6205 22.2235 27.8979C22.605 28.0002 23.07 28.0002 24 28.0002C24.93 28.0002 25.395 28.0002 25.7765 27.8979C26.8117 27.6205 27.6204 26.8119 27.8978 25.7766C28 25.3951 28 24.9301 28 24.0002V22.6668" stroke="white" stroke-width="1.5" stroke-linecap="round" stroke-linejoin="round"/>
</svg>
