<svg width="32" height="32" viewBox="0 0 32 32" fill="none" xmlns="http://www.w3.org/2000/svg">
<path d="M17.3337 4V6.6C17.3337 8.84984 17.3337 9.97476 17.9066 10.7634C18.0916 11.018 18.3156 11.242 18.5703 11.4271C19.3589 12 20.4838 12 22.7337 12L25.3337 12M25.3337 16L25.3337 12.9034C25.3337 11.9239 25.3337 11.4342 25.1868 10.9823C25.1383 10.8328 25.078 10.6874 25.0067 10.5473C24.791 10.124 24.4447 9.77766 23.752 9.08504L20.2486 5.58162C19.556 4.88901 19.2097 4.5427 18.7863 4.32698C18.6463 4.25563 18.5009 4.1954 18.3514 4.14683C17.8995 4 17.4098 4 16.4302 4L12.067 4C9.81715 4 8.69223 4 7.90364 4.57295C7.64895 4.75799 7.42498 4.98196 7.23994 5.23664C6.66699 6.02524 6.66699 7.15016 6.66699 9.4L6.66699 22.6C6.66699 24.8498 6.66699 25.9748 7.23994 26.7634C7.42498 27.018 7.64895 27.242 7.90364 27.4271C8.69223 28 9.81715 28 12.067 28H19.9337C22.1835 28 23.3084 28 24.097 27.4271C24.3517 27.242 24.5757 27.018 24.7607 26.7634C25.3337 25.9748 25.3337 24.8498 25.3337 22.6L25.3337 21.3333" stroke="white" stroke-width="3" stroke-linecap="round" stroke-linejoin="round"/>
</svg>
