<svg width="32" height="32" viewBox="0 0 32 32" fill="none" xmlns="http://www.w3.org/2000/svg">
<path d="M22.2495 6.64399C22.5937 6.8744 23.0595 6.78214 23.2899 6.43793C23.5203 6.09371 23.4281 5.62789 23.0839 5.39748L22.6667 6.02073L22.2495 6.64399ZM27.0438 9.62446C26.8364 9.26591 26.3776 9.14339 26.0191 9.3508C25.6605 9.5582 25.538 10.017 25.7454 10.3755L26.3946 10L27.0438 9.62446ZM16.0529 18.6667L16.0548 17.9167L16.0529 18.6667ZM24.3235 23.0829L23.7025 23.5034L24.3235 23.0829ZM24.2938 23.0392L24.9138 22.6171L24.2938 23.0392ZM15.9471 18.6667L15.949 19.4167L15.9471 18.6667ZM7.6765 23.0829L8.29754 23.5034L7.6765 23.0829ZM7.70618 23.0392L7.08621 22.6171L7.70618 23.0392ZM24.3235 23.0829L23.7025 23.5034L24.3234 24.4205L24.9444 24L25.5655 23.5795L24.9445 22.6624L24.3235 23.0829ZM7.05557 24L7.67661 24.4205L8.29754 23.5034L7.6765 23.0829L7.05547 22.6624L6.43454 23.5795L7.05557 24ZM16 15.3333V14.5833C14.5733 14.5833 13.4167 13.4267 13.4167 12H12.6667H11.9167C11.9167 14.2552 13.7448 16.0833 16 16.0833V15.3333ZM19.3333 12H18.5833C18.5833 13.4267 17.4267 14.5833 16 14.5833V15.3333V16.0833C18.2552 16.0833 20.0833 14.2552 20.0833 12H19.3333ZM16 8.66667V9.41667C17.4267 9.41667 18.5833 10.5733 18.5833 12H19.3333H20.0833C20.0833 9.74484 18.2552 7.91667 16 7.91667V8.66667ZM16 8.66667V7.91667C13.7448 7.91667 11.9167 9.74484 11.9167 12H12.6667H13.4167C13.4167 10.5733 14.5733 9.41667 16 9.41667V8.66667ZM16 28V27.25C9.7868 27.25 4.75 22.2132 4.75 16H4H3.25C3.25 23.0416 8.95837 28.75 16 28.75V28ZM28 16H27.25C27.25 22.2132 22.2132 27.25 16 27.25V28V28.75C23.0416 28.75 28.75 23.0416 28.75 16H28ZM16 4V3.25C8.95837 3.25 3.25 8.95837 3.25 16H4H4.75C4.75 9.7868 9.7868 4.75 16 4.75V4ZM16 4V4.75C18.3137 4.75 20.4623 5.44767 22.2495 6.64399L22.6667 6.02073L23.0839 5.39748C21.0575 4.04105 18.62 3.25 16 3.25V4ZM26.3946 10L25.7454 10.3755C26.7022 12.0295 27.25 13.9496 27.25 16H28H28.75C28.75 13.6789 28.1291 11.5006 27.0438 9.62446L26.3946 10ZM16 18.6667V19.4167C16.0272 19.4167 16.0395 19.4167 16.051 19.4167L16.0529 18.6667L16.0548 17.9167C16.0409 17.9167 16.0264 17.9167 16 17.9167V18.6667ZM24.3235 23.0829L24.9445 22.6624C24.9297 22.6406 24.9216 22.6285 24.9138 22.6171L24.2938 23.0392L23.6738 23.4612C23.6803 23.4707 23.6872 23.4809 23.7025 23.5034L24.3235 23.0829ZM16.0529 18.6667L16.051 19.4167C19.1037 19.4244 21.9559 20.9378 23.6738 23.4612L24.2938 23.0392L24.9138 22.6171C22.9173 19.6845 19.6025 17.9257 16.0548 17.9167L16.0529 18.6667ZM16 18.6667V17.9167C15.9736 17.9167 15.9591 17.9167 15.9452 17.9167L15.9471 18.6667L15.949 19.4167C15.9605 19.4167 15.9728 19.4167 16 19.4167V18.6667ZM7.6765 23.0829L8.29754 23.5034C8.31279 23.4809 8.31969 23.4707 8.32615 23.4612L7.70618 23.0392L7.08621 22.6171C7.07842 22.6285 7.07028 22.6406 7.05547 22.6624L7.6765 23.0829ZM15.9471 18.6667L15.9452 17.9167C12.3975 17.9257 9.08269 19.6845 7.08621 22.6171L7.70618 23.0392L8.32615 23.4612C10.0441 20.9378 12.8963 19.4244 15.949 19.4167L15.9471 18.6667Z" fill="white"/>
</svg>
